<mxfile host="app.diagrams.net" agent="Mozilla/5.0 (Macintosh; Intel Mac OS X 10_15_7) AppleWebKit/537.36 (KHTML, like Gecko) Chrome/132.0.0.0 Safari/537.36" version="26.0.11">
  <diagram name="第 1 页" id="arUY8eHHDzS9g_M78714">
    <mxGraphModel dx="1306" dy="825" grid="0" gridSize="10" guides="1" tooltips="1" connect="1" arrows="1" fold="1" page="1" pageScale="1" pageWidth="827" pageHeight="1169" math="0" shadow="0">
      <root>
        <mxCell id="0" />
        <mxCell id="1" parent="0" />
        <mxCell id="iaG2qTNAKsXV_zvwA0-Y-1" value="高层管理者" style="shape=umlActor;verticalLabelPosition=bottom;verticalAlign=top;html=1;" vertex="1" parent="1">
          <mxGeometry x="108" y="168" width="30" height="60" as="geometry" />
        </mxCell>
        <mxCell id="iaG2qTNAKsXV_zvwA0-Y-2" value="" style="rounded=0;whiteSpace=wrap;html=1;" vertex="1" parent="1">
          <mxGeometry x="213" y="65" width="438" height="644" as="geometry" />
        </mxCell>
        <mxCell id="iaG2qTNAKsXV_zvwA0-Y-3" value="效能度量功能模块" style="text;html=1;align=center;verticalAlign=middle;whiteSpace=wrap;rounded=0;" vertex="1" parent="1">
          <mxGeometry x="364" y="65" width="99" height="30" as="geometry" />
        </mxCell>
        <mxCell id="iaG2qTNAKsXV_zvwA0-Y-4" value="创建项目仪表盘" style="ellipse;whiteSpace=wrap;html=1;" vertex="1" parent="1">
          <mxGeometry x="225" y="312" width="100" height="50" as="geometry" />
        </mxCell>
        <mxCell id="iaG2qTNAKsXV_zvwA0-Y-5" value="创建多类型报表" style="ellipse;whiteSpace=wrap;html=1;" vertex="1" parent="1">
          <mxGeometry x="225" y="163" width="100" height="50" as="geometry" />
        </mxCell>
        <mxCell id="iaG2qTNAKsXV_zvwA0-Y-6" value="配置报表" style="ellipse;whiteSpace=wrap;html=1;" vertex="1" parent="1">
          <mxGeometry x="345" y="225" width="100" height="50" as="geometry" />
        </mxCell>
        <mxCell id="iaG2qTNAKsXV_zvwA0-Y-7" value="关联报表" style="ellipse;whiteSpace=wrap;html=1;" vertex="1" parent="1">
          <mxGeometry x="431" y="369" width="100" height="50" as="geometry" />
        </mxCell>
        <mxCell id="iaG2qTNAKsXV_zvwA0-Y-8" value="" style="endArrow=none;html=1;rounded=0;exitX=1;exitY=0.3333333333333333;exitDx=0;exitDy=0;exitPerimeter=0;entryX=0;entryY=0.5;entryDx=0;entryDy=0;" edge="1" parent="1" source="iaG2qTNAKsXV_zvwA0-Y-1" target="iaG2qTNAKsXV_zvwA0-Y-5">
          <mxGeometry width="50" height="50" relative="1" as="geometry">
            <mxPoint x="387" y="429" as="sourcePoint" />
            <mxPoint x="437" y="379" as="targetPoint" />
          </mxGeometry>
        </mxCell>
        <mxCell id="iaG2qTNAKsXV_zvwA0-Y-9" value="" style="endArrow=none;html=1;rounded=0;exitX=1;exitY=0.3333333333333333;exitDx=0;exitDy=0;exitPerimeter=0;entryX=0;entryY=0.5;entryDx=0;entryDy=0;" edge="1" parent="1" source="iaG2qTNAKsXV_zvwA0-Y-1" target="iaG2qTNAKsXV_zvwA0-Y-4">
          <mxGeometry width="50" height="50" relative="1" as="geometry">
            <mxPoint x="148" y="348" as="sourcePoint" />
            <mxPoint x="244" y="124" as="targetPoint" />
          </mxGeometry>
        </mxCell>
        <mxCell id="iaG2qTNAKsXV_zvwA0-Y-10" value="中层管理者" style="shape=umlActor;verticalLabelPosition=bottom;verticalAlign=top;html=1;" vertex="1" parent="1">
          <mxGeometry x="108" y="442" width="30" height="60" as="geometry" />
        </mxCell>
        <mxCell id="iaG2qTNAKsXV_zvwA0-Y-11" value="自定义配置指标" style="ellipse;whiteSpace=wrap;html=1;" vertex="1" parent="1">
          <mxGeometry x="230" y="88" width="100" height="50" as="geometry" />
        </mxCell>
        <mxCell id="iaG2qTNAKsXV_zvwA0-Y-12" value="创建预设报表模板" style="ellipse;whiteSpace=wrap;html=1;" vertex="1" parent="1">
          <mxGeometry x="473" y="93" width="100" height="50" as="geometry" />
        </mxCell>
        <mxCell id="iaG2qTNAKsXV_zvwA0-Y-13" value="创建自定义报表" style="ellipse;whiteSpace=wrap;html=1;" vertex="1" parent="1">
          <mxGeometry x="476" y="157" width="100" height="50" as="geometry" />
        </mxCell>
        <mxCell id="iaG2qTNAKsXV_zvwA0-Y-14" value="创建报表分组" style="ellipse;whiteSpace=wrap;html=1;" vertex="1" parent="1">
          <mxGeometry x="426" y="305" width="100" height="50" as="geometry" />
        </mxCell>
        <mxCell id="iaG2qTNAKsXV_zvwA0-Y-15" value="查看仪表盘信息" style="ellipse;whiteSpace=wrap;html=1;" vertex="1" parent="1">
          <mxGeometry x="225" y="415" width="100" height="50" as="geometry" />
        </mxCell>
        <mxCell id="iaG2qTNAKsXV_zvwA0-Y-16" value="查看报表信息" style="ellipse;whiteSpace=wrap;html=1;" vertex="1" parent="1">
          <mxGeometry x="225" y="493" width="100" height="50" as="geometry" />
        </mxCell>
        <mxCell id="iaG2qTNAKsXV_zvwA0-Y-17" value="查看报表下钻信息" style="ellipse;whiteSpace=wrap;html=1;" vertex="1" parent="1">
          <mxGeometry x="494" y="629" width="100" height="50" as="geometry" />
        </mxCell>
        <mxCell id="iaG2qTNAKsXV_zvwA0-Y-18" value="多类型导出报表" style="ellipse;whiteSpace=wrap;html=1;" vertex="1" parent="1">
          <mxGeometry x="494" y="432" width="100" height="50" as="geometry" />
        </mxCell>
        <mxCell id="iaG2qTNAKsXV_zvwA0-Y-19" value="配置报表展示样式" style="ellipse;whiteSpace=wrap;html=1;" vertex="1" parent="1">
          <mxGeometry x="519" y="215" width="100" height="50" as="geometry" />
        </mxCell>
        <mxCell id="iaG2qTNAKsXV_zvwA0-Y-20" value="配置报表展示内容" style="ellipse;whiteSpace=wrap;html=1;" vertex="1" parent="1">
          <mxGeometry x="526" y="270" width="100" height="50" as="geometry" />
        </mxCell>
        <mxCell id="iaG2qTNAKsXV_zvwA0-Y-21" value="云端存储服务" style="shape=umlActor;verticalLabelPosition=bottom;verticalAlign=top;html=1;" vertex="1" parent="1">
          <mxGeometry x="686" y="314" width="30" height="60" as="geometry" />
        </mxCell>
        <mxCell id="iaG2qTNAKsXV_zvwA0-Y-22" value="图像可视化工具" style="shape=umlActor;verticalLabelPosition=bottom;verticalAlign=top;html=1;" vertex="1" parent="1">
          <mxGeometry x="688" y="460" width="30" height="60" as="geometry" />
        </mxCell>
        <mxCell id="iaG2qTNAKsXV_zvwA0-Y-23" value="报表信息计算服务" style="shape=umlActor;verticalLabelPosition=bottom;verticalAlign=top;html=1;" vertex="1" parent="1">
          <mxGeometry x="690" y="602" width="30" height="60" as="geometry" />
        </mxCell>
        <mxCell id="iaG2qTNAKsXV_zvwA0-Y-24" value="查看特定项目仪表盘信息" style="ellipse;whiteSpace=wrap;html=1;" vertex="1" parent="1">
          <mxGeometry x="225" y="570" width="100" height="50" as="geometry" />
        </mxCell>
        <mxCell id="iaG2qTNAKsXV_zvwA0-Y-25" value="查看特定项目报表信息" style="ellipse;whiteSpace=wrap;html=1;" vertex="1" parent="1">
          <mxGeometry x="225" y="646" width="100" height="50" as="geometry" />
        </mxCell>
        <mxCell id="iaG2qTNAKsXV_zvwA0-Y-26" value="&amp;lt;&amp;lt;include&amp;gt;&amp;gt;" style="html=1;verticalAlign=bottom;labelBackgroundColor=none;endArrow=open;endFill=0;dashed=1;rounded=0;exitX=1;exitY=0.5;exitDx=0;exitDy=0;entryX=0;entryY=0.5;entryDx=0;entryDy=0;" edge="1" parent="1" source="iaG2qTNAKsXV_zvwA0-Y-4" target="iaG2qTNAKsXV_zvwA0-Y-7">
          <mxGeometry width="160" relative="1" as="geometry">
            <mxPoint x="332" y="424" as="sourcePoint" />
            <mxPoint x="492" y="424" as="targetPoint" />
          </mxGeometry>
        </mxCell>
        <mxCell id="iaG2qTNAKsXV_zvwA0-Y-27" value="&amp;lt;&amp;lt;extend&amp;gt;&amp;gt;" style="html=1;verticalAlign=bottom;labelBackgroundColor=none;endArrow=open;endFill=0;dashed=1;rounded=0;entryX=1;entryY=0.5;entryDx=0;entryDy=0;exitX=0;exitY=0.5;exitDx=0;exitDy=0;" edge="1" parent="1" source="iaG2qTNAKsXV_zvwA0-Y-12" target="iaG2qTNAKsXV_zvwA0-Y-5">
          <mxGeometry width="160" relative="1" as="geometry">
            <mxPoint x="309" y="141" as="sourcePoint" />
            <mxPoint x="469" y="141" as="targetPoint" />
          </mxGeometry>
        </mxCell>
        <mxCell id="iaG2qTNAKsXV_zvwA0-Y-28" value="&amp;lt;&amp;lt;extend&amp;gt;&amp;gt;" style="html=1;verticalAlign=bottom;labelBackgroundColor=none;endArrow=open;endFill=0;dashed=1;rounded=0;entryX=1;entryY=0.5;entryDx=0;entryDy=0;exitX=0;exitY=0.5;exitDx=0;exitDy=0;" edge="1" parent="1" source="iaG2qTNAKsXV_zvwA0-Y-13" target="iaG2qTNAKsXV_zvwA0-Y-5">
          <mxGeometry width="160" relative="1" as="geometry">
            <mxPoint x="479" y="135" as="sourcePoint" />
            <mxPoint x="340" y="164" as="targetPoint" />
          </mxGeometry>
        </mxCell>
        <mxCell id="iaG2qTNAKsXV_zvwA0-Y-29" value="&amp;lt;&amp;lt;include&amp;gt;&amp;gt;" style="html=1;verticalAlign=bottom;labelBackgroundColor=none;endArrow=open;endFill=0;dashed=1;rounded=0;exitX=1;exitY=0.5;exitDx=0;exitDy=0;entryX=0;entryY=0.5;entryDx=0;entryDy=0;" edge="1" parent="1" source="iaG2qTNAKsXV_zvwA0-Y-5" target="iaG2qTNAKsXV_zvwA0-Y-6">
          <mxGeometry width="160" relative="1" as="geometry">
            <mxPoint x="342" y="434" as="sourcePoint" />
            <mxPoint x="502" y="434" as="targetPoint" />
          </mxGeometry>
        </mxCell>
        <mxCell id="iaG2qTNAKsXV_zvwA0-Y-30" value="&amp;lt;&amp;lt;include&amp;gt;&amp;gt;" style="html=1;verticalAlign=bottom;labelBackgroundColor=none;endArrow=open;endFill=0;dashed=1;rounded=0;exitX=1;exitY=0.5;exitDx=0;exitDy=0;entryX=0;entryY=0.5;entryDx=0;entryDy=0;" edge="1" parent="1" source="iaG2qTNAKsXV_zvwA0-Y-6" target="iaG2qTNAKsXV_zvwA0-Y-19">
          <mxGeometry width="160" relative="1" as="geometry">
            <mxPoint x="340" y="164" as="sourcePoint" />
            <mxPoint x="355" y="260" as="targetPoint" />
          </mxGeometry>
        </mxCell>
        <mxCell id="iaG2qTNAKsXV_zvwA0-Y-31" value="&amp;lt;&amp;lt;include&amp;gt;&amp;gt;" style="html=1;verticalAlign=bottom;labelBackgroundColor=none;endArrow=open;endFill=0;dashed=1;rounded=0;exitX=1;exitY=0.5;exitDx=0;exitDy=0;entryX=0;entryY=0.5;entryDx=0;entryDy=0;" edge="1" parent="1" source="iaG2qTNAKsXV_zvwA0-Y-6" target="iaG2qTNAKsXV_zvwA0-Y-20">
          <mxGeometry width="160" relative="1" as="geometry">
            <mxPoint x="455" y="260" as="sourcePoint" />
            <mxPoint x="529" y="250" as="targetPoint" />
          </mxGeometry>
        </mxCell>
        <mxCell id="iaG2qTNAKsXV_zvwA0-Y-32" value="" style="endArrow=none;html=1;rounded=0;exitX=1;exitY=0.3333333333333333;exitDx=0;exitDy=0;exitPerimeter=0;entryX=0;entryY=0.5;entryDx=0;entryDy=0;" edge="1" parent="1" source="iaG2qTNAKsXV_zvwA0-Y-1" target="iaG2qTNAKsXV_zvwA0-Y-11">
          <mxGeometry width="50" height="50" relative="1" as="geometry">
            <mxPoint x="148" y="198" as="sourcePoint" />
            <mxPoint x="240" y="164" as="targetPoint" />
          </mxGeometry>
        </mxCell>
        <mxCell id="iaG2qTNAKsXV_zvwA0-Y-33" value="&amp;lt;&amp;lt;extend&amp;gt;&amp;gt;" style="html=1;verticalAlign=bottom;labelBackgroundColor=none;endArrow=open;endFill=0;dashed=1;rounded=0;entryX=0.5;entryY=0;entryDx=0;entryDy=0;exitX=0.5;exitY=1;exitDx=0;exitDy=0;" edge="1" parent="1" source="iaG2qTNAKsXV_zvwA0-Y-5" target="iaG2qTNAKsXV_zvwA0-Y-4">
          <mxGeometry width="160" relative="1" as="geometry">
            <mxPoint x="335" y="198" as="sourcePoint" />
            <mxPoint x="486" y="192" as="targetPoint" />
          </mxGeometry>
        </mxCell>
        <mxCell id="iaG2qTNAKsXV_zvwA0-Y-34" value="&amp;lt;&amp;lt;extend&amp;gt;&amp;gt;" style="html=1;verticalAlign=bottom;labelBackgroundColor=none;endArrow=open;endFill=0;dashed=1;rounded=0;entryX=1;entryY=0.5;entryDx=0;entryDy=0;exitX=0;exitY=0.5;exitDx=0;exitDy=0;" edge="1" parent="1" source="iaG2qTNAKsXV_zvwA0-Y-14" target="iaG2qTNAKsXV_zvwA0-Y-4">
          <mxGeometry width="160" relative="1" as="geometry">
            <mxPoint x="285" y="223" as="sourcePoint" />
            <mxPoint x="287" y="302" as="targetPoint" />
          </mxGeometry>
        </mxCell>
        <mxCell id="iaG2qTNAKsXV_zvwA0-Y-35" value="&amp;lt;&amp;lt;include&amp;gt;&amp;gt;" style="html=1;verticalAlign=bottom;labelBackgroundColor=none;endArrow=open;endFill=0;dashed=1;rounded=0;exitX=0.5;exitY=1;exitDx=0;exitDy=0;entryX=0.5;entryY=0;entryDx=0;entryDy=0;" edge="1" parent="1" source="iaG2qTNAKsXV_zvwA0-Y-15" target="iaG2qTNAKsXV_zvwA0-Y-16">
          <mxGeometry width="160" relative="1" as="geometry">
            <mxPoint x="429" y="467.5" as="sourcePoint" />
            <mxPoint x="523" y="522.5" as="targetPoint" />
          </mxGeometry>
        </mxCell>
        <mxCell id="iaG2qTNAKsXV_zvwA0-Y-36" value="&amp;lt;&amp;lt;include&amp;gt;&amp;gt;" style="html=1;verticalAlign=bottom;labelBackgroundColor=none;endArrow=open;endFill=0;dashed=1;rounded=0;exitX=0.5;exitY=1;exitDx=0;exitDy=0;entryX=0.5;entryY=0;entryDx=0;entryDy=0;" edge="1" parent="1" source="iaG2qTNAKsXV_zvwA0-Y-24" target="iaG2qTNAKsXV_zvwA0-Y-25">
          <mxGeometry width="160" relative="1" as="geometry">
            <mxPoint x="285" y="475" as="sourcePoint" />
            <mxPoint x="285" y="503" as="targetPoint" />
          </mxGeometry>
        </mxCell>
        <mxCell id="iaG2qTNAKsXV_zvwA0-Y-37" value="&amp;lt;&amp;lt;include&amp;gt;&amp;gt;" style="html=1;verticalAlign=bottom;labelBackgroundColor=none;endArrow=open;endFill=0;dashed=1;rounded=0;exitX=1;exitY=0.5;exitDx=0;exitDy=0;entryX=0;entryY=0.5;entryDx=0;entryDy=0;" edge="1" parent="1" source="iaG2qTNAKsXV_zvwA0-Y-16" target="iaG2qTNAKsXV_zvwA0-Y-18">
          <mxGeometry width="160" relative="1" as="geometry">
            <mxPoint x="335" y="347" as="sourcePoint" />
            <mxPoint x="429" y="402" as="targetPoint" />
          </mxGeometry>
        </mxCell>
        <mxCell id="iaG2qTNAKsXV_zvwA0-Y-38" value="&amp;lt;&amp;lt;include&amp;gt;&amp;gt;" style="html=1;verticalAlign=bottom;labelBackgroundColor=none;endArrow=open;endFill=0;dashed=1;rounded=0;exitX=1;exitY=0.5;exitDx=0;exitDy=0;entryX=0;entryY=0.5;entryDx=0;entryDy=0;" edge="1" parent="1" source="iaG2qTNAKsXV_zvwA0-Y-16" target="iaG2qTNAKsXV_zvwA0-Y-17">
          <mxGeometry width="160" relative="1" as="geometry">
            <mxPoint x="335" y="528" as="sourcePoint" />
            <mxPoint x="503" y="469" as="targetPoint" />
          </mxGeometry>
        </mxCell>
        <mxCell id="iaG2qTNAKsXV_zvwA0-Y-39" value="&amp;lt;&amp;lt;include&amp;gt;&amp;gt;" style="html=1;verticalAlign=bottom;labelBackgroundColor=none;endArrow=open;endFill=0;dashed=1;rounded=0;exitX=1;exitY=0.5;exitDx=0;exitDy=0;entryX=0;entryY=0.5;entryDx=0;entryDy=0;" edge="1" parent="1" source="iaG2qTNAKsXV_zvwA0-Y-25" target="iaG2qTNAKsXV_zvwA0-Y-18">
          <mxGeometry width="160" relative="1" as="geometry">
            <mxPoint x="335" y="528" as="sourcePoint" />
            <mxPoint x="503" y="545" as="targetPoint" />
          </mxGeometry>
        </mxCell>
        <mxCell id="iaG2qTNAKsXV_zvwA0-Y-40" value="&amp;lt;&amp;lt;include&amp;gt;&amp;gt;" style="html=1;verticalAlign=bottom;labelBackgroundColor=none;endArrow=open;endFill=0;dashed=1;rounded=0;exitX=1;exitY=0.5;exitDx=0;exitDy=0;entryX=0;entryY=0.5;entryDx=0;entryDy=0;" edge="1" parent="1" source="iaG2qTNAKsXV_zvwA0-Y-25" target="iaG2qTNAKsXV_zvwA0-Y-17">
          <mxGeometry width="160" relative="1" as="geometry">
            <mxPoint x="335" y="681" as="sourcePoint" />
            <mxPoint x="503" y="469" as="targetPoint" />
          </mxGeometry>
        </mxCell>
        <mxCell id="iaG2qTNAKsXV_zvwA0-Y-41" value="" style="endArrow=none;html=1;rounded=0;exitX=1;exitY=0.5;exitDx=0;exitDy=0;entryX=0;entryY=0.3333333333333333;entryDx=0;entryDy=0;entryPerimeter=0;" edge="1" parent="1" source="iaG2qTNAKsXV_zvwA0-Y-44" target="iaG2qTNAKsXV_zvwA0-Y-22">
          <mxGeometry width="50" height="50" relative="1" as="geometry">
            <mxPoint x="148" y="198" as="sourcePoint" />
            <mxPoint x="235" y="347" as="targetPoint" />
          </mxGeometry>
        </mxCell>
        <mxCell id="iaG2qTNAKsXV_zvwA0-Y-42" value="" style="endArrow=none;html=1;rounded=0;exitX=0;exitY=0.3333333333333333;exitDx=0;exitDy=0;entryX=1;entryY=0.5;entryDx=0;entryDy=0;exitPerimeter=0;" edge="1" parent="1" source="iaG2qTNAKsXV_zvwA0-Y-21" target="iaG2qTNAKsXV_zvwA0-Y-18">
          <mxGeometry width="50" height="50" relative="1" as="geometry">
            <mxPoint x="605" y="492" as="sourcePoint" />
            <mxPoint x="698" y="490" as="targetPoint" />
          </mxGeometry>
        </mxCell>
        <mxCell id="iaG2qTNAKsXV_zvwA0-Y-43" value="" style="endArrow=none;html=1;rounded=0;exitX=1;exitY=0.5;exitDx=0;exitDy=0;entryX=0;entryY=0.3333333333333333;entryDx=0;entryDy=0;entryPerimeter=0;" edge="1" parent="1" source="iaG2qTNAKsXV_zvwA0-Y-44" target="iaG2qTNAKsXV_zvwA0-Y-23">
          <mxGeometry width="50" height="50" relative="1" as="geometry">
            <mxPoint x="605" y="492" as="sourcePoint" />
            <mxPoint x="698" y="490" as="targetPoint" />
          </mxGeometry>
        </mxCell>
        <mxCell id="iaG2qTNAKsXV_zvwA0-Y-44" value="生成报表内容" style="ellipse;whiteSpace=wrap;html=1;" vertex="1" parent="1">
          <mxGeometry x="494" y="538" width="100" height="50" as="geometry" />
        </mxCell>
        <mxCell id="iaG2qTNAKsXV_zvwA0-Y-45" value="&amp;lt;&amp;lt;include&amp;gt;&amp;gt;" style="html=1;verticalAlign=bottom;labelBackgroundColor=none;endArrow=open;endFill=0;dashed=1;rounded=0;entryX=0.5;entryY=0;entryDx=0;entryDy=0;" edge="1" parent="1" source="iaG2qTNAKsXV_zvwA0-Y-18" target="iaG2qTNAKsXV_zvwA0-Y-44">
          <mxGeometry width="160" relative="1" as="geometry">
            <mxPoint x="335" y="528" as="sourcePoint" />
            <mxPoint x="500" y="467" as="targetPoint" />
          </mxGeometry>
        </mxCell>
        <mxCell id="iaG2qTNAKsXV_zvwA0-Y-46" value="&amp;lt;&amp;lt;include&amp;gt;&amp;gt;" style="html=1;verticalAlign=bottom;labelBackgroundColor=none;endArrow=open;endFill=0;dashed=1;rounded=0;entryX=0;entryY=0.5;entryDx=0;entryDy=0;exitX=1;exitY=0.5;exitDx=0;exitDy=0;" edge="1" parent="1" source="iaG2qTNAKsXV_zvwA0-Y-16" target="iaG2qTNAKsXV_zvwA0-Y-44">
          <mxGeometry width="160" relative="1" as="geometry">
            <mxPoint x="550" y="492" as="sourcePoint" />
            <mxPoint x="550" y="520" as="targetPoint" />
          </mxGeometry>
        </mxCell>
        <mxCell id="iaG2qTNAKsXV_zvwA0-Y-47" value="&amp;lt;&amp;lt;include&amp;gt;&amp;gt;" style="html=1;verticalAlign=bottom;labelBackgroundColor=none;endArrow=open;endFill=0;dashed=1;rounded=0;entryX=0;entryY=0.5;entryDx=0;entryDy=0;" edge="1" parent="1" target="iaG2qTNAKsXV_zvwA0-Y-44">
          <mxGeometry width="160" relative="1" as="geometry">
            <mxPoint x="326" y="668" as="sourcePoint" />
            <mxPoint x="500" y="545" as="targetPoint" />
          </mxGeometry>
        </mxCell>
        <mxCell id="iaG2qTNAKsXV_zvwA0-Y-48" value="" style="endArrow=none;html=1;rounded=0;exitX=1;exitY=0.3333333333333333;exitDx=0;exitDy=0;exitPerimeter=0;entryX=0;entryY=0.5;entryDx=0;entryDy=0;" edge="1" parent="1" source="iaG2qTNAKsXV_zvwA0-Y-1" target="iaG2qTNAKsXV_zvwA0-Y-15">
          <mxGeometry width="50" height="50" relative="1" as="geometry">
            <mxPoint x="148" y="198" as="sourcePoint" />
            <mxPoint x="235" y="347" as="targetPoint" />
          </mxGeometry>
        </mxCell>
        <mxCell id="iaG2qTNAKsXV_zvwA0-Y-49" value="" style="endArrow=none;html=1;rounded=0;exitX=1;exitY=0.3333333333333333;exitDx=0;exitDy=0;exitPerimeter=0;entryX=0;entryY=0.5;entryDx=0;entryDy=0;" edge="1" parent="1" source="iaG2qTNAKsXV_zvwA0-Y-1" target="iaG2qTNAKsXV_zvwA0-Y-16">
          <mxGeometry width="50" height="50" relative="1" as="geometry">
            <mxPoint x="148" y="198" as="sourcePoint" />
            <mxPoint x="235" y="450" as="targetPoint" />
          </mxGeometry>
        </mxCell>
        <mxCell id="iaG2qTNAKsXV_zvwA0-Y-50" value="" style="endArrow=none;html=1;rounded=0;exitX=1;exitY=0.3333333333333333;exitDx=0;exitDy=0;exitPerimeter=0;entryX=0;entryY=0.5;entryDx=0;entryDy=0;" edge="1" parent="1" source="iaG2qTNAKsXV_zvwA0-Y-10" target="iaG2qTNAKsXV_zvwA0-Y-24">
          <mxGeometry width="50" height="50" relative="1" as="geometry">
            <mxPoint x="148" y="198" as="sourcePoint" />
            <mxPoint x="235" y="528" as="targetPoint" />
          </mxGeometry>
        </mxCell>
        <mxCell id="iaG2qTNAKsXV_zvwA0-Y-51" value="" style="endArrow=none;html=1;rounded=0;exitX=1;exitY=0.3333333333333333;exitDx=0;exitDy=0;exitPerimeter=0;entryX=0;entryY=0.5;entryDx=0;entryDy=0;" edge="1" parent="1" source="iaG2qTNAKsXV_zvwA0-Y-10" target="iaG2qTNAKsXV_zvwA0-Y-25">
          <mxGeometry width="50" height="50" relative="1" as="geometry">
            <mxPoint x="148" y="472" as="sourcePoint" />
            <mxPoint x="235" y="605" as="targetPoint" />
          </mxGeometry>
        </mxCell>
        <mxCell id="iaG2qTNAKsXV_zvwA0-Y-52" value="" style="endArrow=none;html=1;rounded=0;exitX=1;exitY=0.3333333333333333;exitDx=0;exitDy=0;exitPerimeter=0;entryX=0;entryY=0.5;entryDx=0;entryDy=0;" edge="1" parent="1" source="iaG2qTNAKsXV_zvwA0-Y-10" target="iaG2qTNAKsXV_zvwA0-Y-4">
          <mxGeometry width="50" height="50" relative="1" as="geometry">
            <mxPoint x="148" y="472" as="sourcePoint" />
            <mxPoint x="235" y="681" as="targetPoint" />
          </mxGeometry>
        </mxCell>
        <mxCell id="iaG2qTNAKsXV_zvwA0-Y-53" value="" style="endArrow=none;html=1;rounded=0;exitX=1;exitY=0.3333333333333333;exitDx=0;exitDy=0;exitPerimeter=0;entryX=0;entryY=0.5;entryDx=0;entryDy=0;" edge="1" parent="1" source="iaG2qTNAKsXV_zvwA0-Y-10" target="iaG2qTNAKsXV_zvwA0-Y-5">
          <mxGeometry width="50" height="50" relative="1" as="geometry">
            <mxPoint x="148" y="472" as="sourcePoint" />
            <mxPoint x="235" y="347" as="targetPoint" />
          </mxGeometry>
        </mxCell>
        <mxCell id="iaG2qTNAKsXV_zvwA0-Y-54" value="" style="endArrow=none;html=1;rounded=0;exitX=1;exitY=0.3333333333333333;exitDx=0;exitDy=0;exitPerimeter=0;entryX=0;entryY=0.5;entryDx=0;entryDy=0;" edge="1" parent="1" source="iaG2qTNAKsXV_zvwA0-Y-10" target="iaG2qTNAKsXV_zvwA0-Y-11">
          <mxGeometry width="50" height="50" relative="1" as="geometry">
            <mxPoint x="148" y="472" as="sourcePoint" />
            <mxPoint x="235" y="198" as="targetPoint" />
          </mxGeometry>
        </mxCell>
      </root>
    </mxGraphModel>
  </diagram>
</mxfile>
